<svg width="23" height="14" viewBox="0 0 23 14" fill="none" xmlns="http://www.w3.org/2000/svg">
<path d="M9.90164 0.910056C7.76107 0.910056 6.8796 3.03047 6.8796 3.03047C6.68028 2.63745 6.42555 2.27969 6.12497 1.97064C5.48991 1.29179 4.63776 0.910166 3.75824 0.910799C1.61678 0.910799 -0.111453 2.80766 0.344467 5.6462C0.800214 8.48491 3.46912 10.8248 7.12186 13.369C8.88778 12.0986 10.4108 10.8764 11.5342 9.61907C12.6556 8.3574 13.3753 7.06583 13.5385 5.64455C13.8601 2.80667 12.0431 0.909973 9.90154 0.909973L9.90164 0.910056Z" fill="#FF6757"/>
<path d="M18.6119 0.910056C16.4713 0.910056 15.5899 3.03047 15.5899 3.03047C15.3905 2.63745 15.1358 2.27969 14.8352 1.97064C14.2002 1.29179 13.348 0.910166 12.4685 0.910799C10.327 0.910799 8.59881 2.80766 9.05473 5.6462C9.51048 8.48491 12.1794 10.8248 15.8321 13.369C17.598 12.0986 19.1211 10.8764 20.2444 9.61907C21.3659 8.3574 22.0856 7.06583 22.2487 5.64455C22.5704 2.80667 20.7533 0.909973 18.6118 0.909973L18.6119 0.910056Z" fill="#FF6757"/>
</svg>
