<svg width="12" height="11" viewBox="0 0 12 11" fill="none" xmlns="http://www.w3.org/2000/svg">
<path d="M0.871796 8.61461C1.57036 8.61461 2.26893 8.61461 2.9675 8.61461C2.40864 8.22981 2.09429 7.60013 2.09429 6.93546V3.47222C4.43449 3.47222 6.77469 3.47222 9.11489 3.47222V4.59165H10.058C11.6647 4.59165 11.6647 7.00543 10.058 7.00543H9.11489C9.07996 7.63511 8.7656 8.22981 8.24168 8.61461H10.3374V9.10436H9.53403C9.42924 9.90895 8.73067 10.5386 7.92732 10.5386H3.31678C2.4785 10.5386 1.77993 9.90895 1.67515 9.10436H0.871796V8.61461ZM5.09813 0.9535C4.3297 1.5482 6.49526 2.63265 4.78377 3.33229L4.60913 2.91251C5.72684 2.42275 3.56128 1.47823 4.8187 0.568695L5.09813 0.9535ZM6.4254 0.9535C5.65698 1.5482 7.82254 2.63265 6.11105 3.33229L5.93641 2.91251C7.08904 2.42275 4.88856 1.47823 6.1809 0.568695L6.4254 0.9535ZM9.11489 5.04642V6.55066H10.058C11.0359 6.55066 11.0359 5.04642 10.058 5.04642H9.11489Z" fill="#CB4141"/>
</svg>
