<svg width="17" height="10" viewBox="0 0 17 10" fill="none" xmlns="http://www.w3.org/2000/svg">
<path d="M7.50797 0.16989C5.964 0.16989 5.32822 1.69931 5.32822 1.69931C5.18445 1.41583 5.00072 1.15779 4.78391 0.934869C4.32585 0.445228 3.71121 0.169969 3.07683 0.170426C1.53223 0.170426 0.285682 1.5386 0.61453 3.586C0.943252 5.63351 2.86829 7.32124 5.50296 9.1563C6.77668 8.24 7.87524 7.35843 8.68547 6.45157C9.49436 5.54154 10.0135 4.60995 10.1311 3.58481C10.3632 1.53789 9.05253 0.16983 7.50789 0.16983L7.50797 0.16989Z" fill="#FF6757"/>
<path d="M13.7905 0.16989C12.2466 0.16989 11.6108 1.69931 11.6108 1.69931C11.467 1.41583 11.2833 1.15779 11.0665 0.934869C10.6084 0.445228 9.99378 0.169969 9.35939 0.170426C7.81479 0.170426 6.56824 1.5386 6.89709 3.586C7.22581 5.63351 9.15085 7.32124 11.7855 9.1563C13.0592 8.24 14.1578 7.35843 14.968 6.45157C15.7769 5.54154 16.296 4.60995 16.4137 3.58481C16.6457 1.53789 15.3351 0.16983 13.7905 0.16983L13.7905 0.16989Z" fill="#FF6757"/>
</svg>
