<svg width="32" height="31" viewBox="0 0 32 31" fill="none" xmlns="http://www.w3.org/2000/svg">
<path d="M26.3676 16.2394C26.2248 16.0756 26.1036 15.8969 26.0038 15.7083C25.9547 20.779 21.8214 24.8893 16.7471 24.8893C11.6423 24.8893 7.48918 20.7298 7.48918 15.6172C7.48918 10.5045 11.6423 6.34501 16.7471 6.34501C21.1385 6.34501 24.8255 9.42337 25.7702 13.5385L26.6086 7.29644L26.6274 7.15609C24.2402 4.36378 20.6967 2.59097 16.7471 2.59097C13.6657 2.59097 10.8316 3.67046 8.60078 5.47079V5.60557V5.7249V8.36878V8.47373C8.60078 10.2397 7.6869 11.852 6.24081 12.7733V23.1078V23.2859C8.60854 26.5308 12.4358 28.6432 16.7471 28.6432C21.2774 28.6432 25.2735 26.3108 27.6029 22.7825V22.5916V17.0561C27.1303 16.9021 26.702 16.6224 26.3676 16.2394Z" fill="#FF6757"/>
<path d="M16.747 7.92084C12.5098 7.92084 9.06244 11.3734 9.06244 15.6173C9.06244 19.8611 12.5097 23.3137 16.747 23.3137C20.9843 23.3137 24.4316 19.8611 24.4316 15.6173C24.4316 11.3734 20.9842 7.92084 16.747 7.92084Z" fill="#FF6757"/>
<path d="M31.4486 1.21426C31.4486 0.543629 30.9059 0 30.2363 0C29.6292 0 29.1156 0.449715 29.0348 1.05238L27.2632 14.2412C27.2165 14.5884 27.322 14.9387 27.5521 15.2024C27.7823 15.4661 28.1149 15.6172 28.4647 15.6172H29.1761V29.7639C29.1761 30.4021 29.6926 30.9194 30.3298 30.9194C30.967 30.9194 31.4836 30.4021 31.4836 29.7639L31.4486 1.21426Z" fill="#FF6757"/>
<path d="M7.02745 1.47064C7.02745 1.03542 6.67534 0.68277 6.24079 0.68277C5.80625 0.68277 5.45414 1.03542 5.45414 1.47064V5.83007H4.30038V1.47064C4.30038 1.03542 3.94827 0.68277 3.51372 0.68277C3.07918 0.68277 2.72707 1.03542 2.72707 1.47064V5.83007H1.57331V1.47064C1.57331 1.03542 1.2212 0.68277 0.786655 0.68277C0.352107 0.68277 0 1.03542 0 1.47064V8.57889C0 10.1146 0.987724 11.4229 2.35996 11.9022V29.7638C2.35996 30.402 2.87653 30.9194 3.51372 30.9194C4.15091 30.9194 4.66748 30.402 4.66748 29.7638V11.9022C6.03973 11.4229 7.02745 10.1146 7.02745 8.57889V1.47064Z" fill="#FF6757"/>
</svg>
