<svg width="53" height="29" viewBox="0 0 53 29" fill="none" xmlns="http://www.w3.org/2000/svg">
<path d="M17.6144 2.58282L17.6563 2.57288C21.1575 1.7685 24.9441 4.14504 25.5392 9.10814C25.8337 11.5963 25.1328 14.1219 23.6804 16.8176C22.264 19.4303 20.1587 22.1589 17.6319 25.0882C13.9555 23.627 10.7535 22.1594 8.21893 20.4829C5.61069 18.7577 3.74556 16.8349 2.78527 14.5082L2.78526 14.5082C0.857946 9.83939 3.05805 6.03686 6.57082 5.20367L6.57117 5.20358C8.00831 4.86161 9.5576 5.1524 10.8753 6.02724L10.8752 6.02732L10.8837 6.03271C11.5103 6.43145 12.0811 6.93119 12.5737 7.514L13.2798 8.34929L13.4528 7.28917L13.4528 7.28893L13.4529 7.28867L13.4529 7.28855L13.4529 7.28831L13.4539 7.2829L13.4591 7.25465C13.4641 7.22851 13.4723 7.18809 13.4842 7.1352C13.5081 7.02933 13.5468 6.87398 13.605 6.68337C13.7216 6.30116 13.9149 5.7829 14.2198 5.23966C14.83 4.15283 15.8673 2.99721 17.6144 2.58282Z" fill="#FF6757" stroke="white"/>
<path d="M46.0754 5.11233L46.117 5.12342C49.5817 6.07313 51.7958 9.96066 49.9765 14.6154C49.0611 16.9474 47.2508 18.8407 44.698 20.528C42.2163 22.159 39.0729 23.5659 35.4634 24.9499C32.9141 21.921 30.7859 19.1112 29.3444 16.4335C27.861 13.678 27.1256 11.1004 27.3782 8.59549L27.3782 8.59546C27.8848 3.56889 31.6189 1.26065 35.1074 2.19045L35.1078 2.19054C36.5355 2.56998 37.7633 3.56005 38.5111 4.95501L38.511 4.95506L38.516 4.96382C38.8798 5.61197 39.1467 6.32265 39.3055 7.06951L39.5332 8.13992L40.1862 7.2878L40.1864 7.2876L40.1865 7.28739L40.1866 7.28729L40.1868 7.2871L40.1901 7.28279L40.2081 7.26038C40.2249 7.23973 40.2512 7.20799 40.2867 7.16703C40.3577 7.08505 40.4651 6.9665 40.6064 6.82612C40.8897 6.54461 41.3047 6.17952 41.8299 5.84534C42.8807 5.17676 44.3404 4.64989 46.0754 5.11233Z" fill="#FF6757" stroke="white"/>
</svg>
