<svg width="11" height="19" viewBox="0 0 11 19" fill="none" xmlns="http://www.w3.org/2000/svg">
<path d="M10.0578 9.71802C10.0464 9.4256 9.9262 9.08754 9.72595 8.87441L2.37547 1.10359C1.9462 0.594349 1.12071 0.604624 0.638187 1.06337C0.155651 1.5224 0.116054 2.33489 0.601726 2.79048L5.98712 8.49085C5.36427 7.83157 6.75011 9.04044 6.75011 9.71802C6.75011 10.3956 5.09626 11.5382 5.98712 10.9449L0.601726 16.6453C0.116054 17.1009 0.155934 17.9171 0.638471 18.3761C1.12101 18.8352 1.95849 18.8372 2.37575 18.3325L9.72623 10.5617C9.94984 10.3238 10.0544 10.0461 10.0578 9.71802Z" fill="white"/>
</svg>
