<svg width="11" height="19" viewBox="0 0 11 19" fill="none" xmlns="http://www.w3.org/2000/svg">
<path d="M10.0322 9.71802C10.0208 9.4256 9.90056 9.08754 9.70031 8.87441L2.34983 1.10359C1.92057 0.594349 1.09507 0.604624 0.612552 1.06337C0.130016 1.5224 0.0904194 2.33489 0.576091 2.79048L5.96149 8.49085C5.33864 7.83157 6.72447 9.04044 6.72447 9.71802C6.72447 10.3956 5.07063 11.5382 5.96149 10.9449L0.576091 16.6453C0.0904194 17.1009 0.1303 17.9171 0.612836 18.3761C1.09537 18.8352 1.93286 18.8372 2.35012 18.3325L9.7006 10.5617C9.92421 10.3238 10.0287 10.0461 10.0322 9.71802Z" fill="white"/>
</svg>
