<svg width="11" height="19" viewBox="0 0 11 19" fill="none" xmlns="http://www.w3.org/2000/svg">
<path d="M10.1604 9.95972C10.149 9.6673 10.0288 9.32924 9.82852 9.11611L2.47804 1.34529C2.04877 0.836048 1.22328 0.846324 0.740757 1.30507C0.258221 1.7641 0.218624 2.57659 0.704295 3.03217L6.08969 8.73255C5.46684 8.07327 6.85268 9.28214 6.85268 9.95972C6.85268 10.6373 5.19883 11.7799 6.08969 11.1866L0.704295 16.887C0.218624 17.3426 0.258504 18.1588 0.74104 18.6178C1.22358 19.0769 2.06106 19.0789 2.47832 18.5742L9.8288 10.8034C10.0524 10.5654 10.1569 10.2878 10.1604 9.95972Z" fill="white"/>
</svg>
