<svg width="11" height="19" viewBox="0 0 11 19" fill="none" xmlns="http://www.w3.org/2000/svg">
<path d="M10.1348 9.95972C10.1234 9.6673 10.0032 9.32924 9.80291 9.11611L2.45243 1.34529C2.02317 0.836048 1.19767 0.846324 0.715152 1.30507C0.232616 1.7641 0.193019 2.57659 0.678691 3.03217L6.06409 8.73255C5.44124 8.07327 6.82707 9.28214 6.82707 9.95972C6.82707 10.6373 5.17323 11.7799 6.06409 11.1866L0.678691 16.887C0.193019 17.3426 0.2329 18.1588 0.715436 18.6178C1.19797 19.0769 2.03546 19.0789 2.45272 18.5742L9.8032 10.8034C10.0268 10.5654 10.1313 10.2878 10.1348 9.95972Z" fill="white"/>
</svg>
